<?xml version="1.0" encoding="UTF-8"?>
<svg xmlns="http://www.w3.org/2000/svg" xmlns:xlink="http://www.w3.org/1999/xlink" viewBox="0 0 64 64" version="1.1">
<g id="surface1">
<path style=" " d="M 31 0 C 30.132813 0 29.253906 0.046875 28.386719 0.144531 C 17.820313 1.3125 9.308594 9.828125 8.144531 20.390625 C 7.152344 29.394531 11.3125 37.910156 19 42.621094 C 20.566406 43.578125 21.640625 45.117188 21.953125 46.839844 L 22 47.09375 L 22 53 C 22 56.519531 24.613281 59.433594 28 59.921875 L 28 61 C 28 62.101563 28.898438 63 30 63 L 32 63 C 33.101563 63 34 62.101563 34 61 L 34 59.921875 C 37.386719 59.433594 40 56.519531 40 53 L 40 47.089844 L 40.046875 46.84375 C 40.359375 45.121094 41.445313 43.578125 43.03125 42.605469 C 49.898438 38.378906 54 31.050781 54 23 C 54 10.316406 43.683594 0 31 0 Z M 31 2 C 42.578125 2 52 11.421875 52 23 C 52 30.351563 48.257813 37.042969 41.984375 40.898438 C 40.0625 42.078125 38.699219 43.917969 38.183594 46 L 34 46 L 34 44 C 34 43.445313 33.554688 43 33 43 C 32.445313 43 32 43.445313 32 44 L 32 46 L 30 46 L 30 30.65625 C 30 29.320313 29.480469 28.066406 28.535156 27.121094 L 25.121094 23.707031 C 24.730469 23.316406 24.730469 22.683594 25.121094 22.292969 L 26.292969 21.121094 C 26.683594 20.730469 27.316406 20.730469 27.707031 21.121094 L 28.878906 22.292969 C 30.011719 23.425781 31.988281 23.425781 33.121094 22.292969 L 34.292969 21.121094 C 34.683594 20.730469 35.316406 20.730469 35.707031 21.121094 L 36.878906 22.292969 C 37.269531 22.683594 37.269531 23.316406 36.878906 23.707031 L 33.464844 27.121094 C 32.519531 28.066406 32 29.320313 32 30.65625 L 32 40 C 32 40.554688 32.445313 41 33 41 C 33.554688 41 34 40.554688 34 40 L 34 30.65625 C 34 29.855469 34.3125 29.101563 34.878906 28.535156 L 38.292969 25.121094 C 39.464844 23.949219 39.464844 22.050781 38.292969 20.878906 L 37.121094 19.707031 C 35.949219 18.535156 34.050781 18.535156 32.878906 19.707031 L 31.707031 20.878906 C 31.328125 21.257813 30.671875 21.257813 30.292969 20.878906 L 29.121094 19.707031 C 27.949219 18.535156 26.050781 18.535156 24.878906 19.707031 L 23.707031 20.878906 C 22.535156 22.050781 22.535156 23.949219 23.707031 25.121094 L 27.121094 28.535156 C 27.6875 29.101563 28 29.855469 28 30.65625 L 28 46 L 23.816406 46 C 23.300781 43.914063 21.949219 42.082031 20.046875 40.917969 C 13.027344 36.617188 9.226563 28.832031 10.132813 20.609375 C 11.195313 10.964844 18.964844 3.199219 28.605469 2.132813 C 29.402344 2.046875 30.207031 2 31 2 Z M 16 11 C 15.445313 11 15 11.445313 15 12 L 15 14 C 15 14.554688 15.445313 15 16 15 C 16.554688 15 17 14.554688 17 14 L 17 12 C 17 11.445313 16.554688 11 16 11 Z M 21 11 C 20.445313 11 20 11.445313 20 12 L 20 14 C 20 14.554688 20.445313 15 21 15 C 21.554688 15 22 14.554688 22 14 L 22 12 C 22 11.445313 21.554688 11 21 11 Z M 26 11 C 25.445313 11 25 11.445313 25 12 L 25 14 C 25 14.554688 25.445313 15 26 15 C 26.554688 15 27 14.554688 27 14 L 27 12 C 27 11.445313 26.554688 11 26 11 Z M 31 11 C 30.445313 11 30 11.445313 30 12 L 30 14 C 30 14.554688 30.445313 15 31 15 C 31.554688 15 32 14.554688 32 14 L 32 12 C 32 11.445313 31.554688 11 31 11 Z M 36 11 C 35.445313 11 35 11.445313 35 12 L 35 14 C 35 14.554688 35.445313 15 36 15 C 36.554688 15 37 14.554688 37 14 L 37 12 C 37 11.445313 36.554688 11 36 11 Z M 41 11 C 40.445313 11 40 11.445313 40 12 L 40 14 C 40 14.554688 40.445313 15 41 15 C 41.554688 15 42 14.554688 42 14 L 42 12 C 42 11.445313 41.554688 11 41 11 Z M 46 11 C 45.445313 11 45 11.445313 45 12 L 45 14 C 45 14.554688 45.445313 15 46 15 C 46.554688 15 47 14.554688 47 14 L 47 12 C 47 11.445313 46.554688 11 46 11 Z M 24 48 L 38 48 L 38 49.117188 L 24 50.867188 Z M 38 51.132813 L 38 53 C 38 53.039063 37.988281 53.078125 37.988281 53.121094 L 27.832031 54.390625 C 27.285156 54.457031 26.898438 54.957031 26.96875 55.503906 C 27.03125 56.011719 27.460938 56.378906 27.957031 56.378906 C 27.996094 56.378906 28.039063 56.375 28.082031 56.371094 L 37.46875 55.199219 C 36.652344 56.851563 34.964844 58 33 58 L 29 58 C 26.242188 58 24 55.757813 24 53 L 24 52.882813 Z M 30 60 L 32 60 L 32 61 L 30 61 Z "/>
</g>
</svg>
