<?xml version='1.0' encoding='utf-8'?>
<svg xmlns="http://www.w3.org/2000/svg" width="91.44mm" height="91.44mm" version="1.1" style="shape-rendering:geometricPrecision; text-rendering:geometricPrecision; image-rendering:optimizeQuality; fill-rule:evenodd; clip-rule:evenodd" viewBox="0 0 9144 9144"> <defs> <style type="text/css">  .fil0 {fill:#F0F0F0} .fil1 {fill:#011627;fill-rule:nonzero}  </style> </defs> <g id="Layer_x0020_1"> <metadata id="CorelCorpID_0Corel-Layer"/> <g id="_2744587092656"> <polygon class="fil0" points="0,0 9144,0 9144,9144 0,9144 "/> <path class="fil1" d="M6452 5859l0 406c0,49 -39,88 -88,88l-2180 0c-19,0 -37,-6 -51,-16l-382 -237 0 165c0,49 -39,88 -88,88l-1361 0c-49,0 -88,-39 -88,-88 0,-3 0,-5 0,-8l-1 -2383c0,-49 39,-88 88,-88l0 0 1362 0c49,0 88,39 88,88l0 19 859 -896 214 -984c10,-47 57,-77 105,-67 11,2 22,7 31,14 47,28 123,74 200,121 57,34 115,69 205,124 22,13 36,35 40,58l0 0 166 851c3,16 2,31 -2,45l-189 631 1463 -2c49,0 88,39 88,88l0 0 0 661c0,49 -39,88 -88,88l-34 0 0 570c0,49 -39,88 -88,88l-100 0 0 488c0,49 -39,88 -88,88l-81 0zm-3247 -99c47,0 85,39 85,86 0,47 -38,85 -85,85 -47,0 -86,-38 -86,-85 0,-47 39,-86 86,-86zm546 -1613l0 1745 458 285 2067 0 0 -318 -128 0c-49,0 -88,-39 -88,-88 0,-49 39,-88 88,-88l216 0 81 0 0 -400 -297 0c-49,0 -88,-39 -88,-88 0,-49 39,-88 88,-88l385 0 100 0 0 -482 -481 0c-49,0 -88,-39 -88,-88 0,-49 39,-88 88,-88l569 0 34 0 0 -485 -1487 2c-10,1 -21,0 -31,-4 -47,-13 -73,-63 -59,-109l216 -726 -154 -792c-46,-28 -109,-66 -171,-104 -31,-18 -63,-37 -99,-60l-193 888 0 0c-3,15 -11,30 -23,42l-1003 1046zm-176 1794l0 -1829 0 -150 -1186 0 1 2215 1185 0 0 -236z"/> </g> </g> </svg>